<svg xmlns="http://www.w3.org/2000/svg" viewBox="0 0 155.11 33.41"><defs><style>.cls-1{fill:none;stroke:#f6b47d;stroke-miterlimit:10;}.cls-2{fill:#f6b47d;}.cls-3,.cls-4{fill:#0e2536;}.cls-4{font-size:22px;font-family:Chivo-Bold, Chivo;font-weight:700;letter-spacing:-0.01em;}</style></defs><g id="Layer_2" data-name="Layer 2"><g id="Layer_1-2" data-name="Layer 1"><path id="Path_6" data-name="Path 6" class="cls-1" d="M0,.5H154.61V32.91H83.21"/><path id="Path_7" data-name="Path 7" class="cls-2" d="M69.1,24.7c3.91.28-4.84.7-8-.42A12.93,12.93,0,0,0,52.52,27c-1.42,1.4,0-2,3.13-2.94-.57-1.28-1.5-1.56-3-1.56a15.36,15.36,0,0,0-8.38,1.53l-1.55.84a10.36,10.36,0,0,0,2-4.24,25.59,25.59,0,0,0-.52-5.24A8.6,8.6,0,0,0,43,11.87c-.68-.94-.59-1.58-1.41-2.28a.16.16,0,0,1,0-.23.14.14,0,0,1,.12,0l3,.88c.83.76,2-1.06,9-.14s9.95-2,9.95-2A5.21,5.21,0,0,0,63,10.52a16.47,16.47,0,0,1-.21,4.54c-.36,1.76-1.22,4.84,0,6s1.39,1.16,1.39,1.16"/><path id="Path_8" data-name="Path 8" class="cls-3" d="M1,24.75c-4.08.2,5,.7,8.27-.42a13.82,13.82,0,0,1,9,2.74c1.45,1.4,0-2-3.26-2.94.68-1.28,1.56-1.52,3.11-1.68A16.56,16.56,0,0,1,26.81,24c1,.5,1.63.85,1.63.85l-1-3.35c.23-4.4.25-5,.25-5a18.84,18.84,0,0,1,.42-3.34,7.6,7.6,0,0,1,1.53-3.6.14.14,0,0,0,0-.2.18.18,0,0,0-.14,0l-3.13.88c-.89.76-2.22-1.06-9.38-.14S6.65,8,6.65,8a4.94,4.94,0,0,1,.74,2.74,16.45,16.45,0,0,0,.21,4.54,18.87,18.87,0,0,1,0,6c-.29,2-1,2.26-1,2.26"/><text class="cls-4" transform="translate(75.93 24.23)">NQABA</text></g></g></svg>